<?xml version="1.0" encoding="utf-8"?>
<!-- Generator: Adobe Illustrator 28.0.0, SVG Export Plug-In . SVG Version: 6.00 Build 0)  -->
<svg version="1.0" id="katman_1" xmlns="http://www.w3.org/2000/svg" xmlns:xlink="http://www.w3.org/1999/xlink" x="0px" y="0px"
	 viewBox="0 0 595.28 841.89" style="enable-background:new 0 0 595.28 841.89;" xml:space="preserve">
<style type="text/css">
	.st0{fill:#2B333D;}
	.st1{fill:#B6DEF8;}
</style>
<rect y="111.84" class="st0" width="595.28" height="545.76"/>
<path class="st1" d="M75.6,545.28l203.88,83.88l204.1-90.29c0.03-0.02,0.06,0.04,0.02,0.05L280.08,642.48L75.6,545.28z"/>
<polygon class="st1" points="78.12,206.88 279.48,141.36 483.48,206.88 280.8,128.4 "/>
<g>
	<path class="st1" d="M209.13,250.27l19.7,0.73c0,0,4.66-4.66,9.12-5.34c4.51-0.73,11.21-1,11.21-1l1.21-8.54
		c0,0,4.03,3.67,6.02,9.12c0.68,0.1,1.41,0.26,2.1,0.47l2.46-13.78c0,0,6.03,3.72,6.5,25.2c0.26,11.74,0.52,20.69,1.52,27.98
		c1.89,13.52,14.25,27.66,27.87,40.6c9.17,8.7,18.91,16.82,26.35,23.84c12.31,11.53,21.22,25.2,19.91,51.19
		c11.21,0.1,20.01-5.76,21.59-18.49c0.94-7.39-2.72-13.94-4.51-15.56c-2.51-2.41,17.03,4.72,11.37,26.09
		c-5.66,21.32-33.43,25.78-33.43,25.78H228.99c0,0-1.26-8.54,5.5-9.74c6.81-1.15,7.86,3.56,8.02-5.92
		c0.16-9.43,0.31-19.65-2.46-32.54c-8.33-8.96-19.59-23.16-21.53-36.41c-3.14-21.69,6.65-34.11,9.17-42.7
		c2.51-8.59,3.14-14.51-0.94-16.61c-4.14-2.1-12.89-0.89-16.5-8.44C206.62,258.6,209.13,250.27,209.13,250.27z"/>
	<path class="st0" d="M254.03,361.61c-2.1,9.01-0.52,18.18,3.25,28.34c1.36,3.72,2.41,6.71,2.46,10.79
		c0.16,7.65-1.99,12.57-1.99,12.57s-3.77-0.63-4.77,1.05c-1.05,1.62-0.26,4.14,2.51,4.61c2.78,0.47,5.71,0.16,5.97,0.05
		c0.26-0.05,1.99-0.89,3.04-5.24c1-4.35,4.24-6.81,4.09-9.06c-0.26-4.4-1.94-13.94,7.96-18.55c-3.67,2.99-7.86,8.23-5.19,15.3
		c2.62,6.92,6.18,10.01,8.7,11.37c-2.67,0.52-5.03,0.26-8.33,0.16c-4.14-0.16-5.97,3.09-6.13,4.72c-0.1,1.62,1.21,1.52,2.57,1.52
		c11.16,0,22.37,0,33.53,0c10.22,0,24-1.15,30.7-9.95c5.29-6.97,4.82-16.77-3.2-23.26c-2.93-2.36-6.5-3.82-10.16-4.03
		c-3.62-0.16-4.56,4.56-1.2,5.66c1.73,0.52,4.19,0.73,7.39,3.41c8.7,7.39-1.36,24.68-14.98,16.45c2.83-16.98-0.47-34.79-15.56-45.21
		c-7.7-5.29-13.05-4.72-11.11-17.92c1.47-10.01,0.68-16.45-1.52-21.74c-4.03-8.8-3.04-11.89-7.07-3.41c-2.46-7.75-3.2-3.35-3.3,0.89
		c-2.62,0.52-6.34,1.26-8.7,1.78c-5.45,1.31-3.98,4.45-7.23,5.19c-1,0.21-2.04,0.52-2.67,0.84c-1,0.42-1.94,0.47-2.15,2.2
		c-0.26,1.68,0.16,4.98,0.37,5.76c0.52,2.2,6.76,3.56,7.81,5.87C262.21,348.35,255.81,353.75,254.03,361.61z"/>
</g>
<g>
	<path class="st1" d="M97.2,467.55c0-0.69,0-1.39,0.1-2.08c0.1-0.4,0.1-0.79,0.1-1.29s0-1.09,0-1.58c0-0.2,0.2-0.4,0.4-0.5
		c0.3-0.1,0.61-0.2,0.91-0.2c0.3-0.1,0.61-0.2,0.81-0.3c0.3-0.3,0.61-0.4,1.01-0.4s0.71,0,1.01-0.1c1.01,0,2.02,0,2.94-0.2
		c0.61-0.1,1.21,0,1.82,0.1c0.81,0.2,1.72,0.2,2.63,0c0.71-0.1,1.42-0.1,2.13,0c0.51,0.2,1.11,0,1.62,0c0.4,0,0.81-0.1,1.11,0
		c0.61,0.1,1.21,0.1,1.82,0c0.2-0.1,0.4,0,0.71,0c0.51,0.1,1.01,0.3,1.52,0.4c0.81,0.1,1.52,0.3,2.13,0.89c0.1,0.1,0.2,0.2,0.4,0.2
		c0.51,0.2,1.01,0.5,1.32,0.89c1.01,0.5,1.72,1.29,2.63,1.98c0.1,0.1,0.2,0.1,0.2,0.2c0.51,0.89,1.32,1.49,1.82,2.28
		c0.3,0.4,0.61,0.79,0.61,1.29c0.1,0.3,0.2,0.5,0.41,0.79c0,0.1,0.2,0.3,0.2,0.4c0,1.09,0.51,2.08,0.61,3.17
		c0.2,1.58,0.61,3.07,1.21,4.46c0.2,0.5,0.3,0.89,0.4,1.29c0,0.3,0,0.59,0.1,0.99c0,0.4,0,0.69,0.1,1.09c0.1,0.59,0.3,1.29,0.4,1.88
		s-0.1,1.19,0,1.78c0.1,0.69,0.1,1.49-0.2,2.18c-0.2,0.79-0.3,1.49-0.2,2.28c0,0.69-0.1,1.29-0.51,1.88c-0.4,0.5-0.4,1.19-0.3,1.88
		c0.1,0.99-0.1,1.88-0.51,2.77c-0.3,0.79-0.4,1.58-0.51,2.38c-0.1,0.2-0.1,0.4-0.2,0.59c-0.3,0.59-0.61,1.19-0.81,1.78
		c-0.1,0.2-0.3,0.3-0.4,0.49c-0.2,0.2-0.4,0.4-0.51,0.59c-0.4,0.89-1.01,1.48-1.62,2.08c-0.3,0.3-0.51,0.69-0.91,0.89
		c-0.3,0.3-0.71,0.4-1.11,0.59c-0.51,0.1-0.91,0.4-1.32,0.69c-0.2,0.3-0.51,0.5-0.71,0.69c-0.3,0.2-0.51,0.4-0.91,0.3
		c-0.81,0-1.52,0.2-2.23,0.49c-1.01,0.4-2.13,0.59-3.24,0.59c-0.71-0.1-1.32,0.1-1.92,0.2c-0.3,0-0.61,0-0.81,0
		c-0.61-0.2-1.21-0.2-1.82-0.2c-0.81,0.1-1.62,0-2.43-0.2c-0.41-0.1-0.81-0.1-1.21-0.1c-0.2,0-0.51,0.3-0.51,0.59
		c0,0.5,0,0.99,0,1.48c0,3.96,0,7.92,0,11.88c0,1.78-0.1,3.56-0.4,5.35c-0.2,0.89-0.61,1.58-1.01,2.38c0,0.1-0.2,0.3-0.3,0.3
		c-0.51,0.2-1.01,0.1-1.42,0.5h-0.1c-0.91,0-1.82,0.1-2.73,0c-0.51,0-0.81-0.3-1.11-0.79c-0.4-0.99-0.81-1.88-0.91-2.97
		c-0.2-1.29-0.3-2.57-0.3-3.86c0-9.11,0-18.32,0-27.42C97.2,486.06,97.2,476.85,97.2,467.55z M105.5,487.25c0,3.56,0,7.03,0,10.49
		c0,0.5,0,0.99,0,1.49c0,0.3,0.3,0.5,0.51,0.5c0.51,0.1,1.01,0.1,1.52,0.1c0.41,0,0.71,0,1.11,0.1c1.11,0.1,2.12,0.1,3.14,0.1
		c1.72,0,3.24-0.3,4.86-0.99c1.11-0.4,2.02-1.19,2.73-2.28c0.61-0.99,1.11-2.18,1.21-3.46c0.2-1.39,0.4-2.87,0.71-4.26
		c0.4-1.48,0.51-2.97,0.51-4.46c0-0.89-0.1-1.78-0.3-2.57c-0.3-1.19-0.61-2.38-0.81-3.66c-0.4-1.78-1.01-3.56-1.52-5.45
		c-0.1-0.4-0.3-0.69-0.61-0.89c-0.71-0.59-1.32-1.29-2.02-1.88c-0.61-0.5-1.32-0.79-2.12-0.79c-1.32-0.1-2.63-0.4-3.95-0.1
		c-0.41,0-0.81,0-1.11,0c-0.91,0-1.82,0-2.73,0c-0.2,0-0.4,0-0.61,0c-0.2,0-0.51,0.3-0.51,0.5c0,0.5,0,0.99,0,1.58
		c0,4.36,0,8.71,0,13.07C105.5,485.37,105.5,486.26,105.5,487.25z"/>
	<path class="st1" d="M166.42,462.7c0.4,1.68,0.51,3.46,0.51,5.35l-0.1,0.1c-0.3,1.58-0.2,1.88-2.02,1.98
		c-0.61,0.1-1.32,0.1-2.02,0.1c-5.26,0-10.63,0-15.89,0c-0.61,0-1.21,0-1.82,0.1c-0.51,0-0.71,0.2-0.71,0.59c0,0.59,0,1.19,0,1.78
		c0,0.59,0.1,1.19,0.1,1.78c0,1.09,0,2.18,0,3.27c0,1.39,0,2.67,0.2,4.06c0,0.5,0,0.99,0,1.49c0,4.26,0,8.41,0,12.67
		c0,0.59-0.1,1.19,0.1,1.88c0.3-0.1,0.51,0,0.71-0.1c2.33-0.79,4.66-1.19,6.98-1.29c1.62-0.2,3.34-0.3,4.96-0.59
		c0.81-0.2,1.62-0.3,2.53-0.3c0.91-0.1,1.62-0.2,2.43-0.69c0.2-0.1,0.61-0.1,0.81,0.2c0.4,0.5,0.91,0.89,1.52,1.29
		c0.91,0.59,1.42,2.18,0.71,3.56c-0.81,1.49-1.21,2.08-3.34,2.48c-0.71,0.1-1.32,0.2-2.02,0.3c-2.13,0.3-4.25,0.59-6.38,0.79
		c-0.3,0.1-0.71,0.1-1.01,0.1c-2.63,0.2-5.06,0.89-7.39,1.98c-0.4,0.2-0.61,0.5-0.61,0.99c0,0.89,0,1.78,0,2.67c0,3.27,0,6.53,0,9.9
		c0,0.5,0,0.99,0.1,1.58c0,0.2,0.1,0.3,0.3,0.4c0.51,0,1.11,0,1.62,0c5.36,0,10.63,0,15.99,0c0.4,0,0.81,0,1.21,0
		c1.82,0.1,1.62-0.1,1.92,1.58c0.2,1.39,0.2,2.67,0.2,3.96c0,0.1,0,0.2,0,0.4c-0.51,1.49-0.3,1.78-2.13,1.78
		c-2.73,0.1-5.47,0.1-8.3,0c-1.92,0-3.85,0-5.87,0c-2.43,0-4.96,0-7.49-0.1c-1.42-0.1-2.73-0.3-4.15-0.5c-0.3,0-0.51-0.3-0.61-0.59
		c-0.81-2.18-0.81-2.18-0.81-4.55c-0.1-2.67-0.1-5.44-0.1-8.22c0-6.63,0-13.27,0-19.9c0.1-5.94,0.2-11.98,0.2-17.92
		c0-1.98,0.2-3.96,0.2-5.94c0-0.4,0.1-0.89-0.3-1.29c-0.2-0.79-0.51-1.48-0.71-2.18c-0.2-1.58-0.3-3.17,0.2-4.65
		c0.2-0.4,0.4-0.59,0.81-0.59s0.91,0,1.32,0c8.81,0,17.61,0,26.42,0c0.51,0,1.11-0.1,1.62,0.1
		C166.32,462.6,166.42,462.6,166.42,462.7z"/>
	<path class="st1" d="M190.01,476.36c0-1.29,0.1-2.67,0.2-3.96c0-0.69-0.1-1.39-0.1-1.98c0-0.1-0.1-0.2-0.2-0.2
		c-0.4-0.1-0.81-0.1-1.11-0.1c-3.75,0-7.49,0-11.23,0c-0.61,0-1.21,0-1.82,0c-0.3,0-0.61-0.1-0.81-0.2c-0.2,0-0.4-0.2-0.51-0.4
		c0-0.4-0.1-0.69-0.2-1.09c-0.61-1.68-0.61-3.37-0.4-5.15c0.1-0.4,0.3-0.79,0.4-1.19c0.1-0.2,0.3-0.4,0.51-0.4
		c0.2-0.1,0.4-0.1,0.61-0.1c0.41,0,0.91,0,1.32,0c10.63,0,21.25,0,31.88,0c0.91,0,1.72,0,2.53,0c0.3,0,0.51,0,0.81,0.1
		c0.3,0,0.51,0.1,0.61,0.4c0.51,2.38,0.71,4.75,0.1,7.03c-0.2,0.5-0.51,0.79-0.91,0.89c-0.61,0-1.11,0.1-1.62,0.1
		c-3.34,0-6.58,0-9.82,0c-0.51,0-1.01,0-1.52,0c-0.2,0.1-0.4,0.3-0.4,0.5c0,0.2,0,0.4,0,0.59c0.2,0.99,0.1,1.98,0.1,2.87
		c0,15.74,0,31.48,0,47.22c0,0.99-0.1,1.98-0.1,2.97c0,0.89,0,1.78,0,2.67c0,0.59,0,1.09,0,1.68c-0.1,0.3-0.3,0.59-0.61,0.69
		c-1.52,0.2-3.04,0.4-4.66,0.4c-0.71-0.1-1.42-0.2-2.02-0.4c-0.4-0.1-0.61-0.4-0.61-0.79c-0.1-1.09-0.2-2.18-0.2-3.37
		c-0.2-3.66-0.2-7.33-0.2-10.99c0-2.18,0-4.36,0-6.63c0-1.68,0-3.27,0-4.95c0-1.39,0-2.87,0-4.26c0,0,0,0-0.1,0
		C190.01,491.01,190.01,483.68,190.01,476.36z"/>
	<path class="st1" d="M239.6,467.55c0-0.69,0-1.39,0.1-2.08c0.1-0.4,0.1-0.79,0.1-1.29s0-1.09,0-1.58c0-0.2,0.2-0.4,0.4-0.5
		c0.3-0.1,0.61-0.2,0.91-0.2c0.3-0.1,0.61-0.2,0.81-0.3c0.3-0.3,0.61-0.4,1.01-0.4s0.71,0,1.01-0.1c1.01,0,2.02,0,2.94-0.2
		c0.61-0.1,1.21,0,1.82,0.1c0.81,0.2,1.72,0.2,2.63,0c0.71-0.1,1.42-0.1,2.13,0c0.51,0.2,1.11,0,1.62,0c0.4,0,0.81-0.1,1.11,0
		c0.61,0.1,1.21,0.1,1.82,0c0.2-0.1,0.4,0,0.71,0c0.51,0.1,1.01,0.3,1.52,0.4c0.81,0.1,1.52,0.3,2.13,0.89c0.1,0.1,0.2,0.2,0.4,0.2
		c0.51,0.2,1.01,0.5,1.32,0.89c1.01,0.5,1.72,1.29,2.63,1.98c0.1,0.1,0.2,0.1,0.2,0.2c0.51,0.89,1.32,1.49,1.82,2.28
		c0.3,0.4,0.61,0.79,0.61,1.29c0.1,0.3,0.2,0.5,0.41,0.79c0,0.1,0.2,0.3,0.2,0.4c0,1.09,0.51,2.08,0.61,3.17
		c0.2,1.58,0.61,3.07,1.21,4.46c0.2,0.5,0.3,0.89,0.4,1.29c0,0.3,0,0.59,0.1,0.99c0,0.4,0,0.69,0.1,1.09c0.1,0.59,0.3,1.29,0.4,1.88
		s-0.1,1.19,0,1.78c0.1,0.69,0.1,1.49-0.2,2.18c-0.2,0.79-0.3,1.49-0.2,2.28c0,0.69-0.1,1.29-0.51,1.88c-0.4,0.5-0.4,1.19-0.3,1.88
		c0.1,0.99-0.1,1.88-0.51,2.77c-0.3,0.79-0.4,1.58-0.51,2.38c-0.1,0.2-0.1,0.4-0.2,0.59c-0.3,0.59-0.61,1.19-0.81,1.78
		c-0.1,0.2-0.3,0.3-0.4,0.49c-0.2,0.2-0.4,0.4-0.51,0.59c-0.4,0.89-1.01,1.48-1.62,2.08c-0.3,0.3-0.51,0.69-0.91,0.89
		c-0.3,0.3-0.71,0.4-1.11,0.59c-0.51,0.1-0.91,0.4-1.32,0.69c-0.2,0.3-0.51,0.5-0.71,0.69c-0.3,0.2-0.51,0.4-0.91,0.3
		c-0.81,0-1.52,0.2-2.23,0.49c-1.01,0.4-2.13,0.59-3.24,0.59c-0.71-0.1-1.32,0.1-1.92,0.2c-0.3,0-0.61,0-0.81,0
		c-0.61-0.2-1.21-0.2-1.82-0.2c-0.81,0.1-1.62,0-2.43-0.2c-0.41-0.1-0.81-0.1-1.21-0.1c-0.2,0-0.51,0.3-0.51,0.59
		c0,0.5,0,0.99,0,1.48c0,3.96,0,7.92,0,11.88c0,1.78-0.1,3.56-0.4,5.35c-0.2,0.89-0.61,1.58-1.01,2.38c0,0.1-0.2,0.3-0.3,0.3
		c-0.51,0.2-1.01,0.1-1.42,0.5h-0.1c-0.91,0-1.82,0.1-2.73,0c-0.51,0-0.81-0.3-1.11-0.79c-0.4-0.99-0.81-1.88-0.91-2.97
		c-0.2-1.29-0.3-2.57-0.3-3.86c0-9.11,0-18.32,0-27.42C239.6,486.06,239.6,476.85,239.6,467.55z M247.9,487.25
		c0,3.56,0,7.03,0,10.49c0,0.5,0,0.99,0,1.49c0,0.3,0.3,0.5,0.51,0.5c0.51,0.1,1.01,0.1,1.52,0.1c0.41,0,0.71,0,1.11,0.1
		c1.11,0.1,2.12,0.1,3.14,0.1c1.72,0,3.24-0.3,4.86-0.99c1.11-0.4,2.02-1.19,2.73-2.28c0.61-0.99,1.11-2.18,1.21-3.46
		c0.2-1.39,0.4-2.87,0.71-4.26c0.4-1.48,0.51-2.97,0.51-4.46c0-0.89-0.1-1.78-0.3-2.57c-0.3-1.19-0.61-2.38-0.81-3.66
		c-0.4-1.78-1.01-3.56-1.52-5.45c-0.1-0.4-0.3-0.69-0.61-0.89c-0.71-0.59-1.32-1.29-2.02-1.88c-0.61-0.5-1.32-0.79-2.12-0.79
		c-1.32-0.1-2.63-0.4-3.95-0.1c-0.41,0-0.81,0-1.11,0c-0.91,0-1.82,0-2.73,0c-0.2,0-0.4,0-0.61,0c-0.2,0-0.51,0.3-0.51,0.5
		c0,0.5,0,0.99,0,1.58c0,4.36,0,8.71,0,13.07C247.9,485.37,247.9,486.26,247.9,487.25z"/>
	<path class="st1" d="M316.52,505.07c0,0.3,0,0.69,0,1.09c-0.1,3.86-0.1,7.72-0.2,11.58c-0.1,2.97-0.3,5.84-0.51,8.81
		c0,0.5-0.2,0.99-0.2,1.49c-0.1,0.4-0.3,0.59-0.71,0.79c-0.41,0.1-0.81,0.2-1.21,0.4c-1.42,0.3-2.73,0.4-4.15,0
		c-0.41-0.2-0.71-0.5-0.81-0.89c-0.1-0.3-0.2-0.59-0.2-0.89c-0.2-1.68-0.41-3.27-0.41-4.95c-0.2-2.87-0.1-5.74-0.2-8.61
		c-0.1-2.38-0.1-4.75-0.2-7.03c0-0.3,0.1-0.59-0.2-0.89c-0.61-0.2-1.21-0.1-1.82,0c-3.54,0.59-7.19,1.19-10.73,1.78
		c-0.3,0.1-0.61,0.2-0.91,0.3c-0.1,0.1-0.3,0.3-0.3,0.4c-0.1,0.4-0.1,0.69-0.1,1.09c-0.1,4.65-0.2,9.31-0.3,13.96
		c0,0.99-0.2,1.88-0.3,2.77c-0.1,0.5,0.1,1.19-0.41,1.58c-0.3,0.3-0.91,0.3-1.32,0.5c-0.71,0.3-1.52,0.4-2.23,0.4
		c-0.51,0-1.01,0-1.52,0c-0.61,0-1.11-0.2-1.62-0.4c-0.3,0-0.51-0.2-0.51-0.4c-0.3-1.29-0.61-2.57-0.61-3.86
		c-0.1-4.16-0.1-8.32-0.1-12.47c0-0.59,0-1.09,0-1.68c-0.1-0.5-0.3-0.69-0.71-0.69c-0.91,0-1.72,0.1-2.63,0.2
		c-1.72,0.1-3.34-0.2-5.06-0.49c-0.2-0.1-0.41-0.3-0.51-0.5c-0.2-0.89-0.51-1.68-0.61-2.48c-0.1-0.89,0-1.58,0.1-2.38
		c0.1-0.4,0.4-0.69,0.81-0.79c0.71-0.2,1.42-0.3,2.23-0.3c1.92-0.1,3.85-0.5,5.67-0.89c0.2,0,0.4-0.1,0.51-0.2
		c0.3-0.59,0.2-1.29,0.2-1.88c0-4.95,0-9.9,0-14.85c0-2.67,0-5.25,0-7.82c-0.1-1.09,0.1-2.18,0.61-3.17
		c0.91-2.08,1.82-4.16,2.83-6.24c0-0.2,0.2-0.4,0.4-0.59c0-0.1,0.2-0.1,0.2-0.2c1.01-1.58,2.63-2.38,3.95-3.37
		c0.71-0.5,1.42-0.79,2.33-0.79c0.51-0.1,1.01-0.2,1.52-0.2c0.3-0.1,0.71-0.1,1.01-0.2c0.91-0.3,1.72-0.5,2.63-0.1
		c0.2,0.1,0.51,0.1,0.71,0.1c0.71-0.3,1.32-0.1,2.02,0c1.11,0.3,2.33,0.69,3.24,1.39c0.61,0.4,0.91,0.99,1.62,1.29
		c0.61,0.2,0.91,0.79,1.32,1.19c0.81,0.79,1.52,1.58,2.33,2.28c0.61,0.59,1.11,1.29,1.62,1.98c0.2,0.3,0.3,0.79,0.51,1.19
		c0.3,0.89,0.61,1.68,0.61,2.67c0,0.49,0.1,0.99,0.2,1.39c0.2,0.89,0.4,1.68,0.61,2.57c0.71,1.98,0.81,4.06,1.32,6.04
		c0.3,1.58,0.3,3.07,0.3,4.65v0.1c0,2.28,0,4.55,0,6.83c0,0.3,0,0.59,0.4,0.89c2.13-0.2,4.45-0.1,6.68-0.1c0.3,0,0.61,0,0.91,0.1
		c0.1,0,0.41,0.2,0.41,0.4c0.1,0.69,0.3,1.49,0.41,2.28c0.1,1.09,0,2.08,0,3.17c0,0.4-0.1,0.69-0.2,1.09
		c-0.1,0.4-0.4,0.69-0.91,0.79c-0.4,0.1-0.71,0.1-1.11,0.1c-1.21,0-2.43,0-3.54,0c-1.01,0-1.92,0-2.83,0.1
		C316.72,504.67,316.62,504.87,316.52,505.07z M307.61,484.67c0-0.69,0-1.39-0.41-2.08c-0.2-0.3-0.2-0.59-0.3-0.89
		c-0.1-0.99-0.4-1.88-0.91-2.77c-0.2-0.5-0.41-0.99-0.61-1.49c-0.41-1.29-1.01-2.47-2.02-3.46c-0.61-0.59-1.11-1.19-1.72-1.78
		c-0.2-0.2-0.61-0.4-0.91-0.5c-0.51-0.2-1.11-0.3-1.72-0.3c-1.82,0.1-2.53,0.69-2.83,2.28c-0.1,0.1-0.1,0.2-0.1,0.3
		c0,0.79-0.3,1.49-0.51,2.18c-0.3,0.89-0.51,1.78-0.61,2.67c-0.1,0.69-0.2,1.29-0.51,1.98c-0.51,1.39-0.81,2.97-0.81,4.46
		c0,1.19-0.1,2.38-0.1,3.46c0,0.5,0,0.99,0.1,1.49c0.2,0.4,0.1,0.89,0.1,1.29c-0.3,1.29-0.3,2.57-0.2,3.86
		c0.1,1.19,0.2,2.38,0.2,3.66c0,0.2,0,0.5,0.1,0.69c0,0.1,0.1,0.2,0.2,0.2c0.3,0.1,0.51,0.1,0.81,0c1.52-0.2,3.04-0.4,4.55-0.69
		c2.12-0.5,4.25-0.79,6.28-1.19c0.51,0,0.91-0.1,1.32-0.2c0.4-0.1,0.61-0.3,0.61-0.79c0-0.4,0-0.89,0-1.29c0-1.68,0-3.46,0-5.15
		C307.61,488.63,307.61,486.65,307.61,484.67z"/>
	<path class="st1" d="M331.59,461.41c1.32-0.59,2.73-0.5,4.15-0.5c0.2,0,0.3,0,0.41,0.1c1.42,0.3,1.72,0.2,1.82,1.88
		c0,1.78,0.1,3.66,0.1,5.45c0,17.13,0,34.35,0,51.48c0,0.59,0,1.19,0,1.78c0,0.69,0.1,0.89,0.91,0.89c0.4,0,0.71,0,1.11,0
		c1.52,0.3,2.93,0,4.35-0.3c1.32-0.3,2.63-0.5,3.95-0.5c3.24,0,6.48,0,9.72,0c0.2,0,0.4,0.1,0.71,0.1c0.51,1.78,0.61,3.56,0.51,5.45
		c0,0.4-0.1,0.79-0.2,1.19c-0.1,0.5-0.51,0.79-1.01,0.89c-0.61,0.1-1.21,0.1-1.82,0.1c-1.52,0-3.04,0-4.66-0.1
		c-2.02,0-4.15,0.2-6.17,0.59c-0.41,0.1-0.71,0.1-1.11,0.2c-0.91,0.1-1.72,0.2-2.63,0.2c-0.71,0-1.42,0-2.13,0
		c-0.51,0-0.91-0.1-1.32-0.1c-2.43,0-4.76-0.4-7.19-0.5c-0.61,0-1.21-0.1-1.82-0.49c-0.71-1.29-0.81-2.77-0.71-4.26
		c0.1-0.3,0.1-0.59,0.2-0.89c0.1-0.4,0.3-0.79,0.81-0.99c0.1-0.1,0.2-0.2,0.3-0.2c0.2-0.59,0.2-1.19,0.2-1.78c0-4.55,0-9.11,0-13.66
		c0-10.69-0.1-21.48,0-32.17c0-2.97,0-6.04,0.1-9.11c0-1.29,0.2-2.57,0.3-3.86c0-0.2,0-0.3,0.1-0.59
		C330.99,461.61,331.29,461.51,331.59,461.41z"/>
	<path class="st1" d="M397.28,505.07c0,0.3,0,0.69,0,1.09c-0.1,3.86-0.1,7.72-0.2,11.58c-0.1,2.97-0.3,5.84-0.51,8.81
		c0,0.5-0.2,0.99-0.2,1.49c-0.1,0.4-0.3,0.59-0.71,0.79c-0.41,0.1-0.81,0.2-1.21,0.4c-1.42,0.3-2.73,0.4-4.15,0
		c-0.41-0.2-0.71-0.5-0.81-0.89c-0.1-0.3-0.2-0.59-0.2-0.89c-0.2-1.68-0.41-3.27-0.41-4.95c-0.2-2.87-0.1-5.74-0.2-8.61
		c-0.1-2.38-0.1-4.75-0.2-7.03c0-0.3,0.1-0.59-0.2-0.89c-0.61-0.2-1.21-0.1-1.82,0c-3.54,0.59-7.19,1.19-10.73,1.78
		c-0.3,0.1-0.61,0.2-0.91,0.3c-0.1,0.1-0.3,0.3-0.3,0.4c-0.1,0.4-0.1,0.69-0.1,1.09c-0.1,4.65-0.2,9.31-0.3,13.96
		c0,0.99-0.2,1.88-0.3,2.77c-0.1,0.5,0.1,1.19-0.41,1.58c-0.3,0.3-0.91,0.3-1.32,0.5c-0.71,0.3-1.52,0.4-2.23,0.4
		c-0.51,0-1.01,0-1.52,0c-0.61,0-1.11-0.2-1.62-0.4c-0.3,0-0.51-0.2-0.51-0.4c-0.3-1.29-0.61-2.57-0.61-3.86
		c-0.1-4.16-0.1-8.32-0.1-12.47c0-0.59,0-1.09,0-1.68c-0.1-0.5-0.3-0.69-0.71-0.69c-0.91,0-1.72,0.1-2.63,0.2
		c-1.72,0.1-3.34-0.2-5.06-0.49c-0.2-0.1-0.41-0.3-0.51-0.5c-0.2-0.89-0.51-1.68-0.61-2.48c-0.1-0.89,0-1.58,0.1-2.38
		c0.1-0.4,0.41-0.69,0.81-0.79c0.71-0.2,1.42-0.3,2.23-0.3c1.92-0.1,3.85-0.5,5.67-0.89c0.2,0,0.41-0.1,0.51-0.2
		c0.3-0.59,0.2-1.29,0.2-1.88c0-4.95,0-9.9,0-14.85c0-2.67,0-5.25,0-7.82c-0.1-1.09,0.1-2.18,0.61-3.17
		c0.91-2.08,1.82-4.16,2.83-6.24c0-0.2,0.2-0.4,0.4-0.59c0-0.1,0.2-0.1,0.2-0.2c1.01-1.58,2.63-2.38,3.95-3.37
		c0.71-0.5,1.42-0.79,2.33-0.79c0.51-0.1,1.01-0.2,1.52-0.2c0.3-0.1,0.71-0.1,1.01-0.2c0.91-0.3,1.72-0.5,2.63-0.1
		c0.2,0.1,0.51,0.1,0.71,0.1c0.71-0.3,1.32-0.1,2.02,0c1.11,0.3,2.33,0.69,3.24,1.39c0.61,0.4,0.91,0.99,1.62,1.29
		c0.61,0.2,0.91,0.79,1.32,1.19c0.81,0.79,1.52,1.58,2.33,2.28c0.61,0.59,1.11,1.29,1.62,1.98c0.2,0.3,0.3,0.79,0.51,1.19
		c0.3,0.89,0.61,1.68,0.61,2.67c0,0.49,0.1,0.99,0.2,1.39c0.2,0.89,0.4,1.68,0.61,2.57c0.71,1.98,0.81,4.06,1.32,6.04
		c0.3,1.58,0.3,3.07,0.3,4.65v0.1c0,2.28,0,4.55,0,6.83c0,0.3,0,0.59,0.4,0.89c2.13-0.2,4.45-0.1,6.68-0.1c0.3,0,0.61,0,0.91,0.1
		c0.1,0,0.41,0.2,0.41,0.4c0.1,0.69,0.3,1.49,0.41,2.28c0.1,1.09,0,2.08,0,3.17c0,0.4-0.1,0.69-0.2,1.09
		c-0.1,0.4-0.4,0.69-0.91,0.79c-0.4,0.1-0.71,0.1-1.11,0.1c-1.21,0-2.43,0-3.54,0c-1.01,0-1.92,0-2.83,0.1
		C397.48,504.67,397.38,504.87,397.28,505.07z M388.38,484.67c0-0.69,0-1.39-0.41-2.08c-0.2-0.3-0.2-0.59-0.3-0.89
		c-0.1-0.99-0.4-1.88-0.91-2.77c-0.2-0.5-0.41-0.99-0.61-1.49c-0.41-1.29-1.01-2.47-2.02-3.46c-0.61-0.59-1.11-1.19-1.72-1.78
		c-0.2-0.2-0.61-0.4-0.91-0.5c-0.51-0.2-1.11-0.3-1.72-0.3c-1.82,0.1-2.53,0.69-2.83,2.28c-0.1,0.1-0.1,0.2-0.1,0.3
		c0,0.79-0.3,1.49-0.51,2.18c-0.3,0.89-0.51,1.78-0.61,2.67c-0.1,0.69-0.2,1.29-0.51,1.98c-0.51,1.39-0.81,2.97-0.81,4.46
		c0,1.19-0.1,2.38-0.1,3.46c0,0.5,0,0.99,0.1,1.49c0.2,0.4,0.1,0.89,0.1,1.29c-0.3,1.29-0.3,2.57-0.2,3.86
		c0.1,1.19,0.2,2.38,0.2,3.66c0,0.2,0,0.5,0.1,0.69c0,0.1,0.1,0.2,0.2,0.2c0.3,0.1,0.51,0.1,0.81,0c1.52-0.2,3.04-0.4,4.55-0.69
		c2.12-0.5,4.25-0.79,6.28-1.19c0.51,0,0.91-0.1,1.32-0.2c0.4-0.1,0.61-0.3,0.61-0.79c0-0.4,0-0.89,0-1.29c0-1.68,0-3.46,0-5.15
		C388.38,488.63,388.38,486.65,388.38,484.67z"/>
	<path class="st1" d="M429.06,521.4c0.4-0.5,0.61-0.99,0.71-1.49c0.1-2.08,0.2-4.06,0.2-6.04c0-1.98,0-3.86,0.1-5.84
		c0-1.09,0.2-2.18,0.3-3.27c0-0.3,0-0.59,0.1-0.89c0.71-2.38,0.81-2.28,3.34-2.77c0.3,0,0.61,0,0.91,0c0.51,0.1,1.11,0.2,1.62,0.2
		c0.51,0,1.01-0.1,1.42-0.2c0.3,0,0.71,0.2,0.81,0.5c0.4,1.29,0.81,2.47,0.71,3.86c-0.1,0.89,0,1.88,0,2.77
		c0,2.87-0.2,5.64-0.51,8.51c-0.1,0.4-0.2,0.89-0.2,1.29c0,1.78-0.51,3.46-1.01,5.15c-0.2,0.69-0.4,1.39-0.61,2.08
		c-0.61,0.5-1.11,0.99-1.62,1.49c-0.51,0.4-0.91,0.89-1.32,1.39c-0.3,0.4-0.61,0.79-1.21,0.99c-0.4,0.1-0.71,0.5-1.11,0.69
		c-0.51,0.3-1.11,0.5-1.72,0.5c-1.11-0.1-2.23-0.1-3.34-0.1c-0.3,0-0.51,0-0.81-0.1c-1.01-0.2-2.12-0.3-3.24-0.3
		c-0.3,0-0.61-0.1-0.91-0.2c-0.71-0.1-1.32-0.4-2.02-0.5c-0.61-0.1-1.11-0.2-1.62-0.69c-0.2-0.2-0.51-0.3-0.81-0.49
		c-0.41-0.2-0.91-0.4-1.32-0.5c-0.4-0.2-0.71-0.4-0.91-0.69c-0.51-0.79-1.21-1.39-1.82-1.88c-0.3-0.4-0.3-0.79-0.3-1.09
		c-0.1-0.69-0.3-1.29-0.61-1.98c-0.4-0.89-0.71-1.78-1.01-2.67c-0.71-1.98-1.11-4.06-1.01-6.24c0-3.56,0-7.13,0-10.79
		c0-1.29-0.1-2.67-0.1-3.96c0-1.98,0-3.86,0.2-5.84c0.1-1.39,0.2-2.87-0.1-4.36c0-0.3,0-0.69,0-1.09c0.2-1.98,0.2-3.96,0.51-5.94
		c0.2-0.89,0.3-1.78,0.51-2.67c0.3-0.79,0.4-1.58,0.51-2.38c0.1-1.09,0.3-2.08,0.61-3.17c0.2-0.89,0.4-1.78,0.4-2.67
		c0.1-0.59,0.3-1.19,0.71-1.68c0.4-0.59,0.81-1.09,1.01-1.68c0.1-0.2,0.3-0.4,0.51-0.59c1.01-0.79,2.12-1.58,3.24-2.38
		c0.2-0.1,0.41-0.2,0.51-0.2c0.81,0,1.52-0.3,2.23-0.3c1.82-0.2,3.64-0.59,5.57-0.59c1.11-0.2,2.23,0.2,3.34,0.2
		c0.1,0,0.2,0.1,0.3,0.1c0.71,0.5,1.52,0.69,2.23,0.99c0.81,0.5,1.62,0.89,2.12,1.78c0.2,0.4,0.61,0.69,1.01,0.99
		c0.4,0.3,0.71,0.69,0.81,1.19c0.1,0.69,0.4,1.29,0.81,1.78c0.4,0.79,0.71,1.58,0.81,2.47c0.1,1.19,0.4,2.38,0.3,3.56
		c0,0.3,0.1,0.59,0.2,0.89c0,0.2,0,0.4,0,0.59c-0.4,1.19-0.1,2.48-0.2,3.76c-0.1,2.18-0.1,4.36-0.2,6.53c0,1.39-0.3,2.77-0.61,4.16
		c-0.1,0.3-0.2,0.5-0.3,0.79c-0.2,0.3-0.3,0.4-0.61,0.5c-1.11,0.2-2.13,0.4-3.34,0.2c-0.91-0.1-1.92-0.1-2.94-0.4
		c-0.4-0.2-0.61-0.4-0.71-0.99c0-0.3,0-0.59,0.1-0.89c0-0.69,0.1-1.29,0.2-1.98c0.3-2.08,0.51-4.06,0.51-6.14c0-2.18,0-4.26,0-6.34
		c0-1.78-0.51-3.27-1.42-4.65c-0.51-0.79-1.32-1.29-2.33-1.29c-1.32,0-2.73,0.1-4.05,0.4c-0.2,0-0.51,0.1-0.71,0.3
		c-0.71,0.69-1.42,1.49-1.72,2.48c-0.3,1.19-0.71,2.38-0.61,3.56c0,0.1,0,0.3-0.1,0.4c-0.41,1.68-0.61,3.37-0.81,5.05
		c-0.1,0.79-0.3,1.68-0.3,2.47c0,0.59,0,1.09,0,1.68c-0.1,0.59-0.2,1.29,0,1.98c0,0.3,0,0.69,0,1.09c-0.1,0.79-0.2,1.68-0.2,2.48
		c0,1.29-0.1,2.47-0.3,3.66c-0.1,0.3-0.1,0.59,0,0.89c0.2,0.99,0.2,2.08,0,3.07c0,0.4,0,0.79,0.1,1.29c0,0.69,0.1,1.39,0.1,2.18
		c0,0.89,0,1.78-0.1,2.67c0,0.79,0,1.58-0.1,2.38c0,0.3,0,0.59,0,0.89c0.1,1.19,0.1,2.38,0.1,3.46c0.1,1.58,0.3,3.17,1.01,4.65
		c0.3,0.79,0.61,1.68,1.01,2.47c0.2,0.59,0.61,0.89,1.11,1.19c1.11,0.69,2.43,0.89,3.75,0.99c1.11,0.1,2.33,0.2,3.54,0.1
		C428.55,521.9,428.86,521.6,429.06,521.4z"/>
	<path class="st1" d="M477.34,462.7c0.41,1.68,0.51,3.46,0.51,5.35l-0.1,0.1c-0.3,1.58-0.2,1.88-2.02,1.98
		c-0.61,0.1-1.32,0.1-2.02,0.1c-5.26,0-10.63,0-15.89,0c-0.61,0-1.21,0-1.82,0.1c-0.51,0-0.71,0.2-0.71,0.59c0,0.59,0,1.19,0,1.78
		c0,0.59,0.1,1.19,0.1,1.78c0,1.09,0,2.18,0,3.27c0,1.39,0,2.67,0.2,4.06c0,0.5,0,0.99,0,1.49c0,4.26,0,8.41,0,12.67
		c0,0.59-0.1,1.19,0.1,1.88c0.3-0.1,0.51,0,0.71-0.1c2.33-0.79,4.66-1.19,6.98-1.29c1.62-0.2,3.34-0.3,4.96-0.59
		c0.81-0.2,1.62-0.3,2.53-0.3c0.91-0.1,1.62-0.2,2.43-0.69c0.2-0.1,0.61-0.1,0.81,0.2c0.41,0.5,0.91,0.89,1.52,1.29
		c0.91,0.59,1.42,2.18,0.71,3.56c-0.81,1.49-1.21,2.08-3.34,2.48c-0.71,0.1-1.32,0.2-2.02,0.3c-2.12,0.3-4.25,0.59-6.38,0.79
		c-0.3,0.1-0.71,0.1-1.01,0.1c-2.63,0.2-5.06,0.89-7.39,1.98c-0.41,0.2-0.61,0.5-0.61,0.99c0,0.89,0,1.78,0,2.67
		c0,3.27,0,6.53,0,9.9c0,0.5,0,0.99,0.1,1.58c0,0.2,0.1,0.3,0.3,0.4c0.51,0,1.11,0,1.62,0c5.36,0,10.63,0,15.99,0
		c0.4,0,0.81,0,1.21,0c1.82,0.1,1.62-0.1,1.92,1.58c0.2,1.39,0.2,2.67,0.2,3.96c0,0.1,0,0.2,0,0.4c-0.51,1.49-0.3,1.78-2.13,1.78
		c-2.73,0.1-5.46,0.1-8.3,0c-1.92,0-3.85,0-5.87,0c-2.43,0-4.96,0-7.49-0.1c-1.42-0.1-2.73-0.3-4.15-0.5c-0.3,0-0.51-0.3-0.61-0.59
		c-0.81-2.18-0.81-2.18-0.81-4.55c-0.1-2.67-0.1-5.44-0.1-8.22c0-6.63,0-13.27,0-19.9c0.1-5.94,0.2-11.98,0.2-17.92
		c0-1.98,0.2-3.96,0.2-5.94c0-0.4,0.1-0.89-0.3-1.29c-0.2-0.79-0.51-1.48-0.71-2.18c-0.2-1.58-0.3-3.17,0.2-4.65
		c0.2-0.4,0.4-0.59,0.81-0.59s0.91,0,1.32,0c8.81,0,17.61,0,26.42,0c0.51,0,1.11-0.1,1.62,0.1
		C477.24,462.6,477.34,462.6,477.34,462.7z"/>
</g>
</svg>
